# Blender 3.4.1
# www.blender.org
mtllib cross.mtl.mtl
o Cone.001
v 0.250000 -0.000000 0.512007
v 0.245196 0.048773 0.512007
v 0.230970 0.095671 0.512007
v 0.207867 0.138893 0.512007
v 0.176777 0.176777 0.512007
v 0.138892 0.207867 0.512007
v 0.095671 0.230970 0.512007
v 0.048772 0.245196 0.512007
v -0.000000 0.250000 0.512007
v -0.048773 0.245196 0.512007
v -0.095671 0.230970 0.512007
v -0.138893 0.207867 0.512007
v -0.176777 0.176777 0.512007
v -0.207868 0.138893 0.512007
v -0.230970 0.095671 0.512007
v -0.245196 0.048773 0.512007
v -0.250000 0.000000 0.512007
v -0.245196 -0.048773 0.512007
v -0.230970 -0.095671 0.512007
v -0.207868 -0.138893 0.512007
v -0.176777 -0.176777 0.512007
v -0.138893 -0.207867 0.512007
v -0.095671 -0.230970 0.512007
v -0.048773 -0.245196 0.512007
v -0.000000 -0.250000 0.512007
v 0.048772 -0.245196 0.512007
v 0.095671 -0.230970 0.512007
v 0.138892 -0.207867 0.512007
v 0.176777 -0.176777 0.512007
v 0.207867 -0.138893 0.512007
v 0.230970 -0.095671 0.512007
v 0.245196 -0.048773 0.512007
v 0.000000 -0.000000 0.012007
v -0.000000 -0.250000 2.512007
v 0.000000 -0.250000 0.512007
v 0.048773 -0.245196 2.512007
v 0.048773 -0.245196 0.512007
v 0.095671 -0.230970 2.512007
v 0.095671 -0.230970 0.512007
v 0.138893 -0.207867 2.512007
v 0.138893 -0.207867 0.512007
v 0.176777 -0.176777 2.512007
v 0.176777 -0.176777 0.512007
v 0.207867 -0.138893 2.512007
v 0.207867 -0.138893 0.512007
v 0.230970 -0.095671 2.512007
v 0.230970 -0.095671 0.512007
v 0.245196 -0.048773 2.512007
v 0.245196 -0.048773 0.512007
v 0.250000 -0.000000 2.512007
v 0.250000 0.000000 0.512007
v 0.245196 0.048773 2.512007
v 0.245196 0.048773 0.512007
v 0.230970 0.095671 2.512007
v 0.230970 0.095671 0.512007
v 0.207867 0.138893 2.512007
v 0.207867 0.138893 0.512007
v 0.176777 0.176777 2.512007
v 0.176777 0.176777 0.512007
v 0.138892 0.207867 2.512007
v 0.138893 0.207867 0.512007
v 0.095671 0.230970 2.512007
v 0.095671 0.230970 0.512007
v 0.048772 0.245196 2.512007
v 0.048773 0.245196 0.512007
v -0.000000 0.250000 2.512007
v -0.000000 0.250000 0.512007
v -0.048773 0.245196 2.512007
v -0.048773 0.245196 0.512007
v -0.095671 0.230970 2.512007
v -0.095671 0.230970 0.512007
v -0.138893 0.207867 2.512007
v -0.138893 0.207867 0.512007
v -0.176777 0.176777 2.512007
v -0.176777 0.176777 0.512007
v -0.207867 0.138893 2.512007
v -0.207867 0.138893 0.512007
v -0.230970 0.095671 2.512007
v -0.230970 0.095671 0.512007
v -0.245196 0.048773 2.512007
v -0.245196 0.048773 0.512007
v -0.250000 -0.000000 2.512007
v -0.250000 0.000000 0.512007
v -0.245196 -0.048773 2.512007
v -0.245196 -0.048773 0.512007
v -0.230970 -0.095671 2.512007
v -0.230970 -0.095671 0.512007
v -0.207867 -0.138893 2.512007
v -0.207867 -0.138893 0.512007
v -0.176777 -0.176777 2.512007
v -0.176777 -0.176777 0.512007
v -0.138893 -0.207867 2.512007
v -0.138893 -0.207867 0.512007
v -0.095671 -0.230970 2.512007
v -0.095671 -0.230970 0.512007
v -0.048773 -0.245196 2.512007
v -0.048773 -0.245196 0.512007
v 0.250000 0.000000 -0.500000
v 0.245196 -0.048773 -0.500000
v 0.230970 -0.095671 -0.500000
v 0.207867 -0.138893 -0.500000
v 0.176777 -0.176777 -0.500000
v 0.138892 -0.207867 -0.500000
v 0.095671 -0.230970 -0.500000
v 0.048772 -0.245196 -0.500000
v -0.000000 -0.250000 -0.500000
v -0.048773 -0.245196 -0.500000
v -0.095671 -0.230970 -0.500000
v -0.138893 -0.207867 -0.500000
v -0.176777 -0.176777 -0.500000
v -0.207868 -0.138893 -0.500000
v -0.230970 -0.095671 -0.500000
v -0.245196 -0.048773 -0.500000
v -0.250000 -0.000000 -0.500000
v -0.245196 0.048773 -0.500000
v -0.230970 0.095671 -0.500000
v -0.207868 0.138893 -0.500000
v -0.176777 0.176777 -0.500000
v -0.138893 0.207867 -0.500000
v -0.095671 0.230970 -0.500000
v -0.048773 0.245196 -0.500000
v -0.000000 0.250000 -0.500000
v 0.048772 0.245196 -0.500000
v 0.095671 0.230970 -0.500000
v 0.138892 0.207867 -0.500000
v 0.176777 0.176777 -0.500000
v 0.207867 0.138893 -0.500000
v 0.230970 0.095671 -0.500000
v 0.245196 0.048773 -0.500000
v 0.000000 0.000000 0.000000
v 0.000000 0.250000 -2.500000
v 0.000000 0.250000 -0.500000
v 0.048773 0.245196 -2.500000
v 0.048773 0.245196 -0.500000
v 0.095671 0.230970 -2.500000
v 0.095671 0.230970 -0.500000
v 0.138893 0.207867 -2.500000
v 0.138893 0.207867 -0.500000
v 0.176777 0.176777 -2.500000
v 0.176777 0.176777 -0.500000
v 0.207867 0.138893 -2.500000
v 0.207867 0.138893 -0.500000
v 0.230970 0.095671 -2.500000
v 0.230970 0.095671 -0.500000
v 0.245196 0.048773 -2.500000
v 0.245196 0.048773 -0.500000
v 0.250000 0.000000 -2.500000
v 0.250000 -0.000000 -0.500000
v 0.245196 -0.048773 -2.500000
v 0.245196 -0.048773 -0.500000
v 0.230970 -0.095671 -2.500000
v 0.230970 -0.095671 -0.500000
v 0.207867 -0.138893 -2.500000
v 0.207867 -0.138893 -0.500000
v 0.176777 -0.176777 -2.500000
v 0.176777 -0.176777 -0.500000
v 0.138893 -0.207867 -2.500000
v 0.138893 -0.207867 -0.500000
v 0.095671 -0.230970 -2.500000
v 0.095671 -0.230970 -0.500000
v 0.048773 -0.245196 -2.500000
v 0.048773 -0.245196 -0.500000
v 0.000000 -0.250000 -2.500000
v 0.000000 -0.250000 -0.500000
v -0.048773 -0.245196 -2.500000
v -0.048773 -0.245196 -0.500000
v -0.095671 -0.230970 -2.500000
v -0.095671 -0.230970 -0.500000
v -0.138893 -0.207867 -2.500000
v -0.138893 -0.207867 -0.500000
v -0.176777 -0.176777 -2.500000
v -0.176777 -0.176777 -0.500000
v -0.207867 -0.138893 -2.500000
v -0.207867 -0.138893 -0.500000
v -0.230970 -0.095671 -2.500000
v -0.230970 -0.095671 -0.500000
v -0.245196 -0.048773 -2.500000
v -0.245196 -0.048773 -0.500000
v -0.250000 0.000000 -2.500000
v -0.250000 -0.000000 -0.500000
v -0.245196 0.048773 -2.500000
v -0.245196 0.048773 -0.500000
v -0.230970 0.095671 -2.500000
v -0.230970 0.095671 -0.500000
v -0.207867 0.138893 -2.500000
v -0.207867 0.138893 -0.500000
v -0.176777 0.176777 -2.500000
v -0.176777 0.176777 -0.500000
v -0.138893 0.207867 -2.500000
v -0.138893 0.207867 -0.500000
v -0.095671 0.230970 -2.500000
v -0.095671 0.230970 -0.500000
v -0.048773 0.245196 -2.500000
v -0.048773 0.245196 -0.500000
vn 0.8910 0.0878 -0.4455
vn 0.8567 0.2599 -0.4455
vn 0.7896 0.4220 -0.4455
vn 0.6921 0.5680 -0.4455
vn 0.5680 0.6921 -0.4455
vn 0.4220 0.7896 -0.4455
vn 0.2599 0.8567 -0.4455
vn 0.0878 0.8910 -0.4455
vn -0.0878 0.8910 -0.4455
vn -0.2599 0.8567 -0.4455
vn -0.4220 0.7896 -0.4455
vn -0.5680 0.6921 -0.4455
vn -0.6921 0.5680 -0.4455
vn -0.7896 0.4220 -0.4455
vn -0.8567 0.2599 -0.4455
vn -0.8910 0.0878 -0.4455
vn -0.8910 -0.0878 -0.4455
vn -0.8567 -0.2599 -0.4455
vn -0.7896 -0.4220 -0.4455
vn -0.6921 -0.5680 -0.4455
vn -0.5680 -0.6921 -0.4455
vn -0.4220 -0.7896 -0.4455
vn -0.2599 -0.8567 -0.4455
vn -0.0878 -0.8910 -0.4455
vn 0.0878 -0.8910 -0.4455
vn 0.2599 -0.8567 -0.4455
vn 0.4220 -0.7896 -0.4455
vn 0.5680 -0.6921 -0.4455
vn 0.6921 -0.5680 -0.4455
vn 0.7896 -0.4220 -0.4455
vn -0.0000 -0.0000 1.0000
vn 0.8567 -0.2599 -0.4455
vn 0.8910 -0.0878 -0.4455
vn 0.0980 -0.9952 -0.0000
vn 0.2903 -0.9569 -0.0000
vn 0.4714 -0.8819 -0.0000
vn 0.6344 -0.7730 -0.0000
vn 0.7730 -0.6344 -0.0000
vn 0.8819 -0.4714 -0.0000
vn 0.9569 -0.2903 -0.0000
vn 0.9952 -0.0980 -0.0000
vn 0.9952 0.0980 -0.0000
vn 0.9569 0.2903 -0.0000
vn 0.8819 0.4714 -0.0000
vn 0.7730 0.6344 -0.0000
vn 0.6344 0.7730 -0.0000
vn 0.4714 0.8819 -0.0000
vn 0.2903 0.9569 -0.0000
vn 0.0980 0.9952 -0.0000
vn -0.0980 0.9952 -0.0000
vn -0.2903 0.9569 -0.0000
vn -0.4714 0.8819 -0.0000
vn -0.6344 0.7730 -0.0000
vn -0.7730 0.6344 -0.0000
vn -0.8819 0.4714 -0.0000
vn -0.9569 0.2903 -0.0000
vn -0.9952 0.0980 -0.0000
vn -0.9952 -0.0980 -0.0000
vn -0.9569 -0.2903 -0.0000
vn -0.8819 -0.4714 -0.0000
vn -0.7730 -0.6344 -0.0000
vn -0.6344 -0.7730 -0.0000
vn -0.4714 -0.8819 -0.0000
vn -0.0000 -0.0000 -1.0000
vn -0.2903 -0.9569 -0.0000
vn -0.0980 -0.9952 -0.0000
vn 0.8910 -0.0878 0.4455
vn 0.8567 -0.2599 0.4455
vn 0.7896 -0.4220 0.4455
vn 0.6921 -0.5680 0.4455
vn 0.5680 -0.6921 0.4455
vn 0.4220 -0.7896 0.4455
vn 0.2599 -0.8567 0.4455
vn 0.0878 -0.8910 0.4455
vn -0.0878 -0.8910 0.4455
vn -0.2599 -0.8567 0.4455
vn -0.4220 -0.7896 0.4455
vn -0.5680 -0.6921 0.4455
vn -0.6921 -0.5680 0.4455
vn -0.7896 -0.4220 0.4455
vn -0.8567 -0.2599 0.4455
vn -0.8910 -0.0878 0.4455
vn -0.8910 0.0878 0.4455
vn -0.8567 0.2599 0.4455
vn -0.7896 0.4220 0.4455
vn -0.6921 0.5680 0.4455
vn -0.5680 0.6921 0.4455
vn -0.4220 0.7896 0.4455
vn -0.2599 0.8567 0.4455
vn -0.0878 0.8910 0.4455
vn 0.0878 0.8910 0.4455
vn 0.2599 0.8567 0.4455
vn 0.4220 0.7896 0.4455
vn 0.5680 0.6921 0.4455
vn 0.6921 0.5680 0.4455
vn 0.7896 0.4220 0.4455
vn 0.8567 0.2599 0.4455
vn 0.8910 0.0878 0.4455
vt 0.750000 0.490000
vt 0.250000 0.490000
vt 0.296822 0.485388
vt 0.796822 0.485388
vt 0.341844 0.471731
vt 0.841844 0.471731
vt 0.383337 0.449553
vt 0.883337 0.449553
vt 0.419706 0.419706
vt 0.919706 0.419706
vt 0.449553 0.383337
vt 0.949553 0.383337
vt 0.471731 0.341844
vt 0.971731 0.341844
vt 0.485388 0.296822
vt 0.985388 0.296822
vt 0.490000 0.250000
vt 0.990000 0.250000
vt 0.485388 0.203178
vt 0.985388 0.203178
vt 0.471731 0.158156
vt 0.971731 0.158156
vt 0.449553 0.116663
vt 0.949553 0.116663
vt 0.419706 0.080294
vt 0.919706 0.080294
vt 0.383337 0.050447
vt 0.883337 0.050447
vt 0.341844 0.028269
vt 0.841844 0.028269
vt 0.296822 0.014612
vt 0.796822 0.014612
vt 0.250000 0.010000
vt 0.750000 0.010000
vt 0.203178 0.014612
vt 0.703178 0.014612
vt 0.158156 0.028269
vt 0.658156 0.028269
vt 0.116663 0.050447
vt 0.616663 0.050447
vt 0.080294 0.080294
vt 0.580294 0.080294
vt 0.050447 0.116663
vt 0.550447 0.116663
vt 0.028269 0.158156
vt 0.528269 0.158156
vt 0.014612 0.203178
vt 0.514612 0.203178
vt 0.010000 0.250000
vt 0.510000 0.250000
vt 0.014612 0.296822
vt 0.514612 0.296822
vt 0.028269 0.341844
vt 0.528269 0.341844
vt 0.050447 0.383337
vt 0.550447 0.383337
vt 0.080294 0.419706
vt 0.580294 0.419706
vt 0.116663 0.449553
vt 0.616663 0.449553
vt 0.658156 0.471731
vt 0.158156 0.471731
vt 0.703178 0.485388
vt 0.203178 0.485388
vt 0.250000 0.250000
vt 1.000000 0.500000
vt 0.000000 0.500000
vt 0.750000 0.490000
vt 1.000000 1.000000
vt 0.250000 0.490000
vt 0.000000 1.000000
vt 0.968750 0.500000
vt 0.796822 0.485388
vt 0.968750 1.000000
vt 0.296822 0.485388
vt 0.937500 0.500000
vt 0.841844 0.471731
vt 0.937500 1.000000
vt 0.341844 0.471731
vt 0.906250 0.500000
vt 0.883337 0.449553
vt 0.906250 1.000000
vt 0.383337 0.449553
vt 0.875000 0.500000
vt 0.919706 0.419706
vt 0.875000 1.000000
vt 0.419706 0.419706
vt 0.843750 0.500000
vt 0.949553 0.383337
vt 0.843750 1.000000
vt 0.449553 0.383337
vt 0.812500 0.500000
vt 0.971731 0.341844
vt 0.812500 1.000000
vt 0.471731 0.341844
vt 0.781250 0.500000
vt 0.985388 0.296822
vt 0.781250 1.000000
vt 0.485388 0.296822
vt 0.750000 0.500000
vt 0.990000 0.250000
vt 0.750000 1.000000
vt 0.490000 0.250000
vt 0.718750 0.500000
vt 0.985388 0.203178
vt 0.718750 1.000000
vt 0.485388 0.203178
vt 0.687500 0.500000
vt 0.971731 0.158156
vt 0.687500 1.000000
vt 0.471731 0.158156
vt 0.656250 0.500000
vt 0.949553 0.116663
vt 0.656250 1.000000
vt 0.449553 0.116663
vt 0.625000 0.500000
vt 0.919706 0.080294
vt 0.625000 1.000000
vt 0.419706 0.080294
vt 0.593750 0.500000
vt 0.883337 0.050447
vt 0.593750 1.000000
vt 0.383337 0.050447
vt 0.562500 0.500000
vt 0.841844 0.028269
vt 0.562500 1.000000
vt 0.341844 0.028269
vt 0.531250 0.500000
vt 0.796822 0.014612
vt 0.531250 1.000000
vt 0.296822 0.014612
vt 0.500000 0.500000
vt 0.750000 0.010000
vt 0.500000 1.000000
vt 0.250000 0.010000
vt 0.468750 0.500000
vt 0.703178 0.014612
vt 0.468750 1.000000
vt 0.203178 0.014612
vt 0.437500 0.500000
vt 0.658156 0.028269
vt 0.437500 1.000000
vt 0.158156 0.028269
vt 0.406250 0.500000
vt 0.616663 0.050447
vt 0.406250 1.000000
vt 0.116663 0.050447
vt 0.375000 0.500000
vt 0.580294 0.080294
vt 0.375000 1.000000
vt 0.080294 0.080294
vt 0.343750 0.500000
vt 0.550447 0.116663
vt 0.343750 1.000000
vt 0.050447 0.116663
vt 0.312500 0.500000
vt 0.528269 0.158156
vt 0.312500 1.000000
vt 0.028269 0.158156
vt 0.281250 0.500000
vt 0.514612 0.203178
vt 0.281250 1.000000
vt 0.014612 0.203178
vt 0.250000 0.500000
vt 0.510000 0.250000
vt 0.250000 1.000000
vt 0.010000 0.250000
vt 0.218750 0.500000
vt 0.514612 0.296822
vt 0.218750 1.000000
vt 0.014612 0.296822
vt 0.187500 0.500000
vt 0.528269 0.341844
vt 0.187500 1.000000
vt 0.028269 0.341844
vt 0.156250 0.500000
vt 0.550447 0.383337
vt 0.156250 1.000000
vt 0.050447 0.383337
vt 0.125000 0.500000
vt 0.580294 0.419706
vt 0.125000 1.000000
vt 0.080294 0.419706
vt 0.093750 0.500000
vt 0.616663 0.449553
vt 0.093750 1.000000
vt 0.116663 0.449553
vt 0.062500 0.500000
vt 0.658156 0.471731
vt 0.158156 0.471731
vt 0.062500 1.000000
vt 0.031250 0.500000
vt 0.703178 0.485388
vt 0.203178 0.485388
vt 0.031250 1.000000
vt 0.750000 0.490000
vt 0.250000 0.490000
vt 0.296822 0.485388
vt 0.796822 0.485388
vt 0.341844 0.471731
vt 0.841844 0.471731
vt 0.383337 0.449553
vt 0.883337 0.449553
vt 0.419706 0.419706
vt 0.919706 0.419706
vt 0.449553 0.383337
vt 0.949553 0.383337
vt 0.471731 0.341844
vt 0.971731 0.341844
vt 0.485388 0.296822
vt 0.985388 0.296822
vt 0.490000 0.250000
vt 0.990000 0.250000
vt 0.485388 0.203178
vt 0.985388 0.203178
vt 0.471731 0.158156
vt 0.971731 0.158156
vt 0.449553 0.116663
vt 0.949553 0.116663
vt 0.419706 0.080294
vt 0.919706 0.080294
vt 0.383337 0.050447
vt 0.883337 0.050447
vt 0.341844 0.028269
vt 0.841844 0.028269
vt 0.296822 0.014612
vt 0.796822 0.014612
vt 0.250000 0.010000
vt 0.750000 0.010000
vt 0.203178 0.014612
vt 0.703178 0.014612
vt 0.158156 0.028269
vt 0.658156 0.028269
vt 0.116663 0.050447
vt 0.616663 0.050447
vt 0.080294 0.080294
vt 0.580294 0.080294
vt 0.050447 0.116663
vt 0.550447 0.116663
vt 0.028269 0.158156
vt 0.528269 0.158156
vt 0.014612 0.203178
vt 0.514612 0.203178
vt 0.010000 0.250000
vt 0.510000 0.250000
vt 0.014612 0.296822
vt 0.514612 0.296822
vt 0.028269 0.341844
vt 0.528269 0.341844
vt 0.050447 0.383337
vt 0.550447 0.383337
vt 0.080294 0.419706
vt 0.580294 0.419706
vt 0.116663 0.449553
vt 0.616663 0.449553
vt 0.658156 0.471731
vt 0.158156 0.471731
vt 0.703178 0.485388
vt 0.203178 0.485388
vt 0.250000 0.250000
vt 1.000000 0.500000
vt 0.000000 0.500000
vt 0.750000 0.490000
vt 1.000000 1.000000
vt 0.250000 0.490000
vt 0.000000 1.000000
vt 0.968750 0.500000
vt 0.796822 0.485388
vt 0.968750 1.000000
vt 0.296822 0.485388
vt 0.937500 0.500000
vt 0.841844 0.471731
vt 0.937500 1.000000
vt 0.341844 0.471731
vt 0.906250 0.500000
vt 0.883337 0.449553
vt 0.906250 1.000000
vt 0.383337 0.449553
vt 0.875000 0.500000
vt 0.919706 0.419706
vt 0.875000 1.000000
vt 0.419706 0.419706
vt 0.843750 0.500000
vt 0.949553 0.383337
vt 0.843750 1.000000
vt 0.449553 0.383337
vt 0.812500 0.500000
vt 0.971731 0.341844
vt 0.812500 1.000000
vt 0.471731 0.341844
vt 0.781250 0.500000
vt 0.985388 0.296822
vt 0.781250 1.000000
vt 0.485388 0.296822
vt 0.750000 0.500000
vt 0.990000 0.250000
vt 0.750000 1.000000
vt 0.490000 0.250000
vt 0.718750 0.500000
vt 0.985388 0.203178
vt 0.718750 1.000000
vt 0.485388 0.203178
vt 0.687500 0.500000
vt 0.971731 0.158156
vt 0.687500 1.000000
vt 0.471731 0.158156
vt 0.656250 0.500000
vt 0.949553 0.116663
vt 0.656250 1.000000
vt 0.449553 0.116663
vt 0.625000 0.500000
vt 0.919706 0.080294
vt 0.625000 1.000000
vt 0.419706 0.080294
vt 0.593750 0.500000
vt 0.883337 0.050447
vt 0.593750 1.000000
vt 0.383337 0.050447
vt 0.562500 0.500000
vt 0.841844 0.028269
vt 0.562500 1.000000
vt 0.341844 0.028269
vt 0.531250 0.500000
vt 0.796822 0.014612
vt 0.531250 1.000000
vt 0.296822 0.014612
vt 0.500000 0.500000
vt 0.750000 0.010000
vt 0.500000 1.000000
vt 0.250000 0.010000
vt 0.468750 0.500000
vt 0.703178 0.014612
vt 0.468750 1.000000
vt 0.203178 0.014612
vt 0.437500 0.500000
vt 0.658156 0.028269
vt 0.437500 1.000000
vt 0.158156 0.028269
vt 0.406250 0.500000
vt 0.616663 0.050447
vt 0.406250 1.000000
vt 0.116663 0.050447
vt 0.375000 0.500000
vt 0.580294 0.080294
vt 0.375000 1.000000
vt 0.080294 0.080294
vt 0.343750 0.500000
vt 0.550447 0.116663
vt 0.343750 1.000000
vt 0.050447 0.116663
vt 0.312500 0.500000
vt 0.528269 0.158156
vt 0.312500 1.000000
vt 0.028269 0.158156
vt 0.281250 0.500000
vt 0.514612 0.203178
vt 0.281250 1.000000
vt 0.014612 0.203178
vt 0.250000 0.500000
vt 0.510000 0.250000
vt 0.250000 1.000000
vt 0.010000 0.250000
vt 0.218750 0.500000
vt 0.514612 0.296822
vt 0.218750 1.000000
vt 0.014612 0.296822
vt 0.187500 0.500000
vt 0.528269 0.341844
vt 0.187500 1.000000
vt 0.028269 0.341844
vt 0.156250 0.500000
vt 0.550447 0.383337
vt 0.156250 1.000000
vt 0.050447 0.383337
vt 0.125000 0.500000
vt 0.580294 0.419706
vt 0.125000 1.000000
vt 0.080294 0.419706
vt 0.093750 0.500000
vt 0.616663 0.449553
vt 0.093750 1.000000
vt 0.116663 0.449553
vt 0.062500 0.500000
vt 0.658156 0.471731
vt 0.158156 0.471731
vt 0.062500 1.000000
vt 0.031250 0.500000
vt 0.703178 0.485388
vt 0.203178 0.485388
vt 0.031250 1.000000
s 0
f 1/2/1 33/65/1 2/3/1
f 2/3/2 33/65/2 3/5/2
f 3/5/3 33/65/3 4/7/3
f 4/7/4 33/65/4 5/9/4
f 5/9/5 33/65/5 6/11/5
f 6/11/6 33/65/6 7/13/6
f 7/13/7 33/65/7 8/15/7
f 8/15/8 33/65/8 9/17/8
f 9/17/9 33/65/9 10/19/9
f 10/19/10 33/65/10 11/21/10
f 11/21/11 33/65/11 12/23/11
f 12/23/12 33/65/12 13/25/12
f 13/25/13 33/65/13 14/27/13
f 14/27/14 33/65/14 15/29/14
f 15/29/15 33/65/15 16/31/15
f 16/31/16 33/65/16 17/33/16
f 17/33/17 33/65/17 18/35/17
f 18/35/18 33/65/18 19/37/18
f 19/37/19 33/65/19 20/39/19
f 20/39/20 33/65/20 21/41/20
f 21/41/21 33/65/21 22/43/21
f 22/43/22 33/65/22 23/45/22
f 23/45/23 33/65/23 24/47/23
f 24/47/24 33/65/24 25/49/24
f 25/49/25 33/65/25 26/51/25
f 26/51/26 33/65/26 27/53/26
f 27/53/27 33/65/27 28/55/27
f 28/55/28 33/65/28 29/57/28
f 29/57/29 33/65/29 30/59/29
f 30/59/30 33/65/30 31/62/30
f 1/1/31 2/4/31 3/6/31 4/8/31 5/10/31 6/12/31 7/14/31 8/16/31 9/18/31 10/20/31 11/22/31 12/24/31 13/26/31 14/28/31 15/30/31 16/32/31 17/34/31 18/36/31 19/38/31 20/40/31 21/42/31 22/44/31 23/46/31 24/48/31 25/50/31 26/52/31 27/54/31 28/56/31 29/58/31 30/60/31 31/61/31 32/63/31
f 31/62/32 33/65/32 32/64/32
f 32/64/33 33/65/33 1/2/33
f 34/66/34 35/69/34 37/74/34 36/72/34
f 36/72/35 37/74/35 39/78/35 38/76/35
f 38/76/36 39/78/36 41/82/36 40/80/36
f 40/80/37 41/82/37 43/86/37 42/84/37
f 42/84/38 43/86/38 45/90/38 44/88/38
f 44/88/39 45/90/39 47/94/39 46/92/39
f 46/92/40 47/94/40 49/98/40 48/96/40
f 48/96/41 49/98/41 51/102/41 50/100/41
f 50/100/42 51/102/42 53/106/42 52/104/42
f 52/104/43 53/106/43 55/110/43 54/108/43
f 54/108/44 55/110/44 57/114/44 56/112/44
f 56/112/45 57/114/45 59/118/45 58/116/45
f 58/116/46 59/118/46 61/122/46 60/120/46
f 60/120/47 61/122/47 63/126/47 62/124/47
f 62/124/48 63/126/48 65/130/48 64/128/48
f 64/128/49 65/130/49 67/134/49 66/132/49
f 66/132/50 67/134/50 69/138/50 68/136/50
f 68/136/51 69/138/51 71/142/51 70/140/51
f 70/140/52 71/142/52 73/146/52 72/144/52
f 72/144/53 73/146/53 75/150/53 74/148/53
f 74/148/54 75/150/54 77/154/54 76/152/54
f 76/152/55 77/154/55 79/158/55 78/156/55
f 78/156/56 79/158/56 81/162/56 80/160/56
f 80/160/57 81/162/57 83/166/57 82/164/57
f 82/164/58 83/166/58 85/170/58 84/168/58
f 84/168/59 85/170/59 87/174/59 86/172/59
f 86/172/60 87/174/60 89/178/60 88/176/60
f 88/176/61 89/178/61 91/182/61 90/180/61
f 90/180/62 91/182/62 93/186/62 92/184/62
f 92/184/63 93/186/63 95/191/63 94/188/63
f 37/75/64 35/70/64 97/194/64 95/190/64 93/187/64 91/183/64 89/179/64 87/175/64 85/171/64 83/167/64 81/163/64 79/159/64 77/155/64 75/151/64 73/147/64 71/143/64 69/139/64 67/135/64 65/131/64 63/127/64 61/123/64 59/119/64 57/115/64 55/111/64 53/107/64 51/103/64 49/99/64 47/95/64 45/91/64 43/87/64 41/83/64 39/79/64
f 94/188/65 95/191/65 97/195/65 96/192/65
f 96/192/66 97/195/66 35/71/66 34/67/66
f 34/68/31 36/73/31 38/77/31 40/81/31 42/85/31 44/89/31 46/93/31 48/97/31 50/101/31 52/105/31 54/109/31 56/113/31 58/117/31 60/121/31 62/125/31 64/129/31 66/133/31 68/137/31 70/141/31 72/145/31 74/149/31 76/153/31 78/157/31 80/161/31 82/165/31 84/169/31 86/173/31 88/177/31 90/181/31 92/185/31 94/189/31 96/193/31
f 98/197/67 130/260/67 99/198/67
f 99/198/68 130/260/68 100/200/68
f 100/200/69 130/260/69 101/202/69
f 101/202/70 130/260/70 102/204/70
f 102/204/71 130/260/71 103/206/71
f 103/206/72 130/260/72 104/208/72
f 104/208/73 130/260/73 105/210/73
f 105/210/74 130/260/74 106/212/74
f 106/212/75 130/260/75 107/214/75
f 107/214/76 130/260/76 108/216/76
f 108/216/77 130/260/77 109/218/77
f 109/218/78 130/260/78 110/220/78
f 110/220/79 130/260/79 111/222/79
f 111/222/80 130/260/80 112/224/80
f 112/224/81 130/260/81 113/226/81
f 113/226/82 130/260/82 114/228/82
f 114/228/83 130/260/83 115/230/83
f 115/230/84 130/260/84 116/232/84
f 116/232/85 130/260/85 117/234/85
f 117/234/86 130/260/86 118/236/86
f 118/236/87 130/260/87 119/238/87
f 119/238/88 130/260/88 120/240/88
f 120/240/89 130/260/89 121/242/89
f 121/242/90 130/260/90 122/244/90
f 122/244/91 130/260/91 123/246/91
f 123/246/92 130/260/92 124/248/92
f 124/248/93 130/260/93 125/250/93
f 125/250/94 130/260/94 126/252/94
f 126/252/95 130/260/95 127/254/95
f 127/254/96 130/260/96 128/257/96
f 98/196/64 99/199/64 100/201/64 101/203/64 102/205/64 103/207/64 104/209/64 105/211/64 106/213/64 107/215/64 108/217/64 109/219/64 110/221/64 111/223/64 112/225/64 113/227/64 114/229/64 115/231/64 116/233/64 117/235/64 118/237/64 119/239/64 120/241/64 121/243/64 122/245/64 123/247/64 124/249/64 125/251/64 126/253/64 127/255/64 128/256/64 129/258/64
f 128/257/97 130/260/97 129/259/97
f 129/259/98 130/260/98 98/197/98
f 131/261/49 132/264/49 134/269/49 133/267/49
f 133/267/48 134/269/48 136/273/48 135/271/48
f 135/271/47 136/273/47 138/277/47 137/275/47
f 137/275/46 138/277/46 140/281/46 139/279/46
f 139/279/45 140/281/45 142/285/45 141/283/45
f 141/283/44 142/285/44 144/289/44 143/287/44
f 143/287/43 144/289/43 146/293/43 145/291/43
f 145/291/42 146/293/42 148/297/42 147/295/42
f 147/295/41 148/297/41 150/301/41 149/299/41
f 149/299/40 150/301/40 152/305/40 151/303/40
f 151/303/39 152/305/39 154/309/39 153/307/39
f 153/307/38 154/309/38 156/313/38 155/311/38
f 155/311/37 156/313/37 158/317/37 157/315/37
f 157/315/36 158/317/36 160/321/36 159/319/36
f 159/319/35 160/321/35 162/325/35 161/323/35
f 161/323/34 162/325/34 164/329/34 163/327/34
f 163/327/66 164/329/66 166/333/66 165/331/66
f 165/331/65 166/333/65 168/337/65 167/335/65
f 167/335/63 168/337/63 170/341/63 169/339/63
f 169/339/62 170/341/62 172/345/62 171/343/62
f 171/343/61 172/345/61 174/349/61 173/347/61
f 173/347/60 174/349/60 176/353/60 175/351/60
f 175/351/59 176/353/59 178/357/59 177/355/59
f 177/355/58 178/357/58 180/361/58 179/359/58
f 179/359/57 180/361/57 182/365/57 181/363/57
f 181/363/56 182/365/56 184/369/56 183/367/56
f 183/367/55 184/369/55 186/373/55 185/371/55
f 185/371/54 186/373/54 188/377/54 187/375/54
f 187/375/53 188/377/53 190/381/53 189/379/53
f 189/379/52 190/381/52 192/386/52 191/383/52
f 134/270/31 132/265/31 194/389/31 192/385/31 190/382/31 188/378/31 186/374/31 184/370/31 182/366/31 180/362/31 178/358/31 176/354/31 174/350/31 172/346/31 170/342/31 168/338/31 166/334/31 164/330/31 162/326/31 160/322/31 158/318/31 156/314/31 154/310/31 152/306/31 150/302/31 148/298/31 146/294/31 144/290/31 142/286/31 140/282/31 138/278/31 136/274/31
f 191/383/51 192/386/51 194/390/51 193/387/51
f 193/387/50 194/390/50 132/266/50 131/262/50
f 131/263/64 133/268/64 135/272/64 137/276/64 139/280/64 141/284/64 143/288/64 145/292/64 147/296/64 149/300/64 151/304/64 153/308/64 155/312/64 157/316/64 159/320/64 161/324/64 163/328/64 165/332/64 167/336/64 169/340/64 171/344/64 173/348/64 175/352/64 177/356/64 179/360/64 181/364/64 183/368/64 185/372/64 187/376/64 189/380/64 191/384/64 193/388/64
