# Blender 3.4.1
# www.blender.org
mtllib crossPart.mtl
o Cone.001
v 0.000000 -0.000000 0.012007
v -0.000000 -0.250000 2.512007
v -0.000000 -0.250000 0.512007
v 0.048773 -0.245196 2.512007
v 0.048772 -0.245196 0.512007
v 0.095671 -0.230970 2.512007
v 0.095671 -0.230970 0.512007
v 0.138893 -0.207867 2.512007
v 0.138892 -0.207867 0.512007
v 0.176777 -0.176777 2.512007
v 0.176777 -0.176777 0.512007
v 0.207867 -0.138893 2.512007
v 0.207867 -0.138893 0.512007
v 0.230970 -0.095671 2.512007
v 0.230970 -0.095671 0.512007
v 0.245196 -0.048773 2.512007
v 0.245196 -0.048773 0.512007
v 0.250000 -0.000000 2.512007
v 0.250000 -0.000000 0.512007
v 0.245196 0.048773 2.512007
v 0.245196 0.048773 0.512007
v 0.230970 0.095671 2.512007
v 0.230970 0.095671 0.512007
v 0.207867 0.138893 2.512007
v 0.207867 0.138893 0.512007
v 0.176777 0.176777 2.512007
v 0.176777 0.176777 0.512007
v 0.138892 0.207867 2.512007
v 0.138892 0.207867 0.512007
v 0.095671 0.230970 2.512007
v 0.095671 0.230970 0.512007
v 0.048772 0.245196 2.512007
v 0.048772 0.245196 0.512007
v -0.000000 0.250000 2.512007
v -0.000000 0.250000 0.512007
v -0.048773 0.245196 2.512007
v -0.048773 0.245196 0.512007
v -0.095671 0.230970 2.512007
v -0.095671 0.230970 0.512007
v -0.138893 0.207867 2.512007
v -0.138893 0.207867 0.512007
v -0.176777 0.176777 2.512007
v -0.176777 0.176777 0.512007
v -0.207867 0.138893 2.512007
v -0.207868 0.138893 0.512007
v -0.230970 0.095671 2.512007
v -0.230970 0.095671 0.512007
v -0.245196 0.048773 2.512007
v -0.245196 0.048773 0.512007
v -0.250000 -0.000000 2.512007
v -0.250000 0.000000 0.512007
v -0.245196 -0.048773 2.512007
v -0.245196 -0.048773 0.512007
v -0.230970 -0.095671 2.512007
v -0.230970 -0.095671 0.512007
v -0.207867 -0.138893 2.512007
v -0.207868 -0.138893 0.512007
v -0.176777 -0.176777 2.512007
v -0.176777 -0.176777 0.512007
v -0.138893 -0.207867 2.512007
v -0.138893 -0.207867 0.512007
v -0.095671 -0.230970 2.512007
v -0.095671 -0.230970 0.512007
v -0.048773 -0.245196 2.512007
v -0.048773 -0.245196 0.512007
vn 0.8910 0.0878 -0.4455
vn 0.8567 0.2599 -0.4455
vn 0.7896 0.4220 -0.4455
vn 0.6921 0.5680 -0.4455
vn 0.5680 0.6921 -0.4455
vn 0.4220 0.7896 -0.4455
vn 0.2599 0.8567 -0.4455
vn 0.0878 0.8910 -0.4455
vn -0.0878 0.8910 -0.4455
vn -0.2599 0.8567 -0.4455
vn -0.4220 0.7896 -0.4455
vn -0.5680 0.6921 -0.4455
vn -0.6921 0.5680 -0.4455
vn -0.7896 0.4220 -0.4455
vn -0.8567 0.2599 -0.4455
vn -0.8910 0.0878 -0.4455
vn -0.8910 -0.0878 -0.4455
vn -0.8567 -0.2599 -0.4455
vn -0.7896 -0.4220 -0.4455
vn -0.6921 -0.5680 -0.4455
vn -0.5680 -0.6921 -0.4455
vn -0.4220 -0.7896 -0.4455
vn -0.2599 -0.8567 -0.4455
vn -0.0878 -0.8910 -0.4455
vn 0.0878 -0.8910 -0.4455
vn 0.2599 -0.8567 -0.4455
vn 0.4220 -0.7896 -0.4455
vn 0.5680 -0.6921 -0.4455
vn 0.6921 -0.5680 -0.4455
vn 0.7896 -0.4220 -0.4455
vn 0.8567 -0.2599 -0.4455
vn 0.8910 -0.0878 -0.4455
vn 0.0980 -0.9952 -0.0000
vn 0.2903 -0.9569 -0.0000
vn 0.4714 -0.8819 -0.0000
vn 0.6344 -0.7730 -0.0000
vn 0.7730 -0.6344 -0.0000
vn 0.8819 -0.4714 -0.0000
vn 0.9569 -0.2903 -0.0000
vn 0.9952 -0.0980 -0.0000
vn 0.9952 0.0980 -0.0000
vn 0.9569 0.2903 -0.0000
vn 0.8819 0.4714 -0.0000
vn 0.7730 0.6344 -0.0000
vn 0.6344 0.7730 -0.0000
vn 0.4714 0.8819 -0.0000
vn 0.2903 0.9569 -0.0000
vn 0.0980 0.9952 -0.0000
vn -0.0980 0.9952 -0.0000
vn -0.2903 0.9569 -0.0000
vn -0.4714 0.8819 -0.0000
vn -0.6344 0.7730 -0.0000
vn -0.7730 0.6344 -0.0000
vn -0.8819 0.4714 -0.0000
vn -0.9569 0.2903 -0.0000
vn -0.9952 0.0980 -0.0000
vn -0.9952 -0.0980 -0.0000
vn -0.9569 -0.2903 -0.0000
vn -0.8819 -0.4714 -0.0000
vn -0.7730 -0.6344 -0.0000
vn -0.6344 -0.7730 -0.0000
vn -0.4714 -0.8819 -0.0000
vn -0.2903 -0.9569 -0.0000
vn -0.0980 -0.9952 -0.0000
vn -0.0000 -0.0000 1.0000
vt 0.250000 0.250000
vt 1.000000 0.500000
vt 0.000000 0.500000
vt 0.750000 0.490000
vt 0.010000 0.250000
vt 1.000000 1.000000
vt 0.000000 1.000000
vt 0.968750 0.500000
vt 0.796822 0.485388
vt 0.014612 0.296822
vt 0.968750 1.000000
vt 0.937500 0.500000
vt 0.841844 0.471731
vt 0.028269 0.341844
vt 0.937500 1.000000
vt 0.906250 0.500000
vt 0.883337 0.449553
vt 0.050447 0.383337
vt 0.906250 1.000000
vt 0.875000 0.500000
vt 0.919706 0.419706
vt 0.080294 0.419706
vt 0.875000 1.000000
vt 0.843750 0.500000
vt 0.949553 0.383337
vt 0.116663 0.449553
vt 0.843750 1.000000
vt 0.812500 0.500000
vt 0.971731 0.341844
vt 0.158156 0.471731
vt 0.812500 1.000000
vt 0.781250 0.500000
vt 0.985388 0.296822
vt 0.203178 0.485388
vt 0.781250 1.000000
vt 0.750000 0.500000
vt 0.990000 0.250000
vt 0.250000 0.490000
vt 0.750000 1.000000
vt 0.718750 0.500000
vt 0.985388 0.203178
vt 0.296822 0.485388
vt 0.718750 1.000000
vt 0.687500 0.500000
vt 0.971731 0.158156
vt 0.341844 0.471731
vt 0.687500 1.000000
vt 0.656250 0.500000
vt 0.949553 0.116663
vt 0.383337 0.449553
vt 0.656250 1.000000
vt 0.625000 0.500000
vt 0.919706 0.080294
vt 0.419706 0.419706
vt 0.625000 1.000000
vt 0.593750 0.500000
vt 0.883337 0.050447
vt 0.449553 0.383337
vt 0.593750 1.000000
vt 0.562500 0.500000
vt 0.841844 0.028269
vt 0.471731 0.341844
vt 0.562500 1.000000
vt 0.531250 0.500000
vt 0.796822 0.014612
vt 0.485388 0.296822
vt 0.531250 1.000000
vt 0.500000 0.500000
vt 0.750000 0.010000
vt 0.490000 0.250000
vt 0.500000 1.000000
vt 0.468750 0.500000
vt 0.703178 0.014612
vt 0.485388 0.203178
vt 0.468750 1.000000
vt 0.437500 0.500000
vt 0.658156 0.028269
vt 0.471731 0.158156
vt 0.437500 1.000000
vt 0.406250 0.500000
vt 0.616663 0.050447
vt 0.449553 0.116663
vt 0.406250 1.000000
vt 0.375000 0.500000
vt 0.580294 0.080294
vt 0.419706 0.080294
vt 0.375000 1.000000
vt 0.343750 0.500000
vt 0.550447 0.116663
vt 0.383337 0.050447
vt 0.343750 1.000000
vt 0.312500 0.500000
vt 0.528269 0.158156
vt 0.341844 0.028269
vt 0.312500 1.000000
vt 0.281250 0.500000
vt 0.514612 0.203178
vt 0.296822 0.014612
vt 0.281250 1.000000
vt 0.250000 0.500000
vt 0.510000 0.250000
vt 0.250000 0.010000
vt 0.250000 1.000000
vt 0.218750 0.500000
vt 0.514612 0.296822
vt 0.203178 0.014612
vt 0.218750 1.000000
vt 0.187500 0.500000
vt 0.528269 0.341844
vt 0.158156 0.028269
vt 0.187500 1.000000
vt 0.156250 0.500000
vt 0.550447 0.383337
vt 0.116663 0.050447
vt 0.156250 1.000000
vt 0.125000 0.500000
vt 0.580294 0.419706
vt 0.080294 0.080294
vt 0.125000 1.000000
vt 0.093750 0.500000
vt 0.616663 0.449553
vt 0.050447 0.116663
vt 0.093750 1.000000
vt 0.062500 0.500000
vt 0.658156 0.471731
vt 0.028269 0.158156
vt 0.062500 1.000000
vt 0.031250 0.500000
vt 0.703178 0.485388
vt 0.014612 0.203178
vt 0.031250 1.000000
s 0
f 19/38/1 1/1/1 21/42/1
f 21/42/2 1/1/2 23/46/2
f 23/46/3 1/1/3 25/50/3
f 25/50/4 1/1/4 27/54/4
f 27/54/5 1/1/5 29/58/5
f 29/58/6 1/1/6 31/62/6
f 31/62/7 1/1/7 33/66/7
f 33/66/8 1/1/8 35/70/8
f 35/70/9 1/1/9 37/74/9
f 37/74/10 1/1/10 39/78/10
f 39/78/11 1/1/11 41/82/11
f 41/82/12 1/1/12 43/86/12
f 43/86/13 1/1/13 45/90/13
f 45/90/14 1/1/14 47/94/14
f 47/94/15 1/1/15 49/98/15
f 49/98/16 1/1/16 51/102/16
f 51/102/17 1/1/17 53/106/17
f 53/106/18 1/1/18 55/110/18
f 55/110/19 1/1/19 57/114/19
f 57/114/20 1/1/20 59/118/20
f 59/118/21 1/1/21 61/122/21
f 61/122/22 1/1/22 63/126/22
f 63/126/23 1/1/23 65/130/23
f 65/130/24 1/1/24 3/5/24
f 3/5/25 1/1/25 5/10/25
f 5/10/26 1/1/26 7/14/26
f 7/14/27 1/1/27 9/18/27
f 9/18/28 1/1/28 11/22/28
f 11/22/29 1/1/29 13/26/29
f 13/26/30 1/1/30 15/30/30
f 15/30/31 1/1/31 17/34/31
f 17/34/32 1/1/32 19/38/32
f 2/2/33 3/6/33 5/11/33 4/8/33
f 4/8/34 5/11/34 7/15/34 6/12/34
f 6/12/35 7/15/35 9/19/35 8/16/35
f 8/16/36 9/19/36 11/23/36 10/20/36
f 10/20/37 11/23/37 13/27/37 12/24/37
f 12/24/38 13/27/38 15/31/38 14/28/38
f 14/28/39 15/31/39 17/35/39 16/32/39
f 16/32/40 17/35/40 19/39/40 18/36/40
f 18/36/41 19/39/41 21/43/41 20/40/41
f 20/40/42 21/43/42 23/47/42 22/44/42
f 22/44/43 23/47/43 25/51/43 24/48/43
f 24/48/44 25/51/44 27/55/44 26/52/44
f 26/52/45 27/55/45 29/59/45 28/56/45
f 28/56/46 29/59/46 31/63/46 30/60/46
f 30/60/47 31/63/47 33/67/47 32/64/47
f 32/64/48 33/67/48 35/71/48 34/68/48
f 34/68/49 35/71/49 37/75/49 36/72/49
f 36/72/50 37/75/50 39/79/50 38/76/50
f 38/76/51 39/79/51 41/83/51 40/80/51
f 40/80/52 41/83/52 43/87/52 42/84/52
f 42/84/53 43/87/53 45/91/53 44/88/53
f 44/88/54 45/91/54 47/95/54 46/92/54
f 46/92/55 47/95/55 49/99/55 48/96/55
f 48/96/56 49/99/56 51/103/56 50/100/56
f 50/100/57 51/103/57 53/107/57 52/104/57
f 52/104/58 53/107/58 55/111/58 54/108/58
f 54/108/59 55/111/59 57/115/59 56/112/59
f 56/112/60 57/115/60 59/119/60 58/116/60
f 58/116/61 59/119/61 61/123/61 60/120/61
f 60/120/62 61/123/62 63/127/62 62/124/62
f 62/124/63 63/127/63 65/131/63 64/128/63
f 64/128/64 65/131/64 3/7/64 2/3/64
f 2/4/65 4/9/65 6/13/65 8/17/65 10/21/65 12/25/65 14/29/65 16/33/65 18/37/65 20/41/65 22/45/65 24/49/65 26/53/65 28/57/65 30/61/65 32/65/65 34/69/65 36/73/65 38/77/65 40/81/65 42/85/65 44/89/65 46/93/65 48/97/65 50/101/65 52/105/65 54/109/65 56/113/65 58/117/65 60/121/65 62/125/65 64/129/65
