# Blender 3.4.1
# www.blender.org
mtllib halfCircle.mtl
o Torus
v 1.250000 0.000000 0.000000
v 1.216506 0.125000 0.000000
v 1.125000 0.216506 0.000000
v 1.000000 0.250000 0.000000
v 0.875000 0.216506 0.000000
v 0.783494 0.125000 0.000000
v 0.750000 0.000000 0.000000
v 0.783494 -0.125000 0.000000
v 0.875000 -0.216506 0.000000
v 1.000000 -0.250000 0.000000
v 1.125000 -0.216506 0.000000
v 1.216506 -0.125000 0.000000
v -1.250000 0.000000 -0.000000
v -1.216506 0.125000 -0.000000
v -1.125000 0.216506 -0.000000
v -1.000000 0.250000 -0.000000
v -0.875000 0.216506 -0.000000
v -0.783494 0.125000 -0.000000
v -0.750000 0.000000 -0.000000
v -0.783494 -0.125000 -0.000000
v -0.875000 -0.216506 -0.000000
v -1.000000 -0.250000 -0.000000
v -1.125000 -0.216506 -0.000000
v -1.216506 -0.125000 -0.000000
v -1.207407 0.000000 0.323524
v -1.175055 0.125000 0.314855
v -1.086667 0.216506 0.291171
v -0.965926 0.250000 0.258819
v -0.845185 0.216506 0.226467
v -0.756797 0.125000 0.202783
v -0.724444 0.000000 0.194114
v -0.756797 -0.125000 0.202783
v -0.845185 -0.216506 0.226467
v -0.965926 -0.250000 0.258819
v -1.086667 -0.216506 0.291171
v -1.175055 -0.125000 0.314855
v -1.082532 0.000000 0.625000
v -1.053526 0.125000 0.608253
v -0.974279 0.216506 0.562500
v -0.866026 0.250000 0.500000
v -0.757772 0.216506 0.437500
v -0.678525 0.125000 0.391747
v -0.649519 0.000000 0.375000
v -0.678525 -0.125000 0.391747
v -0.757772 -0.216506 0.437500
v -0.866026 -0.250000 0.500000
v -0.974279 -0.216506 0.562500
v -1.053526 -0.125000 0.608253
v -0.883884 0.000000 0.883883
v -0.860200 0.125000 0.860200
v -0.795495 0.216506 0.795495
v -0.707107 0.250000 0.707107
v -0.618719 0.216506 0.618718
v -0.554014 0.125000 0.554013
v -0.530330 0.000000 0.530330
v -0.554014 -0.125000 0.554013
v -0.618719 -0.216506 0.618718
v -0.707107 -0.250000 0.707107
v -0.795495 -0.216506 0.795495
v -0.860200 -0.125000 0.860200
v -0.625000 0.000000 1.082532
v -0.608253 0.125000 1.053526
v -0.562500 0.216506 0.974279
v -0.500000 0.250000 0.866026
v -0.437500 0.216506 0.757772
v -0.391747 0.125000 0.678525
v -0.375000 0.000000 0.649519
v -0.391747 -0.125000 0.678525
v -0.437500 -0.216506 0.757772
v -0.500000 -0.250000 0.866026
v -0.562500 -0.216506 0.974279
v -0.608253 -0.125000 1.053526
v -0.323524 0.000000 1.207407
v -0.314855 0.125000 1.175055
v -0.291172 0.216506 1.086666
v -0.258819 0.250000 0.965926
v -0.226467 0.216506 0.845185
v -0.202783 0.125000 0.756797
v -0.194115 0.000000 0.724444
v -0.202783 -0.125000 0.756797
v -0.226467 -0.216506 0.845185
v -0.258819 -0.250000 0.965926
v -0.291172 -0.216506 1.086666
v -0.314855 -0.125000 1.175055
v 0.000000 0.000000 1.250000
v 0.000000 0.125000 1.216506
v 0.000000 0.216506 1.125000
v 0.000000 0.250000 1.000000
v 0.000000 0.216506 0.875000
v 0.000000 0.125000 0.783494
v 0.000000 0.000000 0.750000
v 0.000000 -0.125000 0.783494
v 0.000000 -0.216506 0.875000
v 0.000000 -0.250000 1.000000
v 0.000000 -0.216506 1.125000
v 0.000000 -0.125000 1.216506
v 0.323523 0.000000 1.207407
v 0.314854 0.125000 1.175055
v 0.291171 0.216506 1.086667
v 0.258819 0.250000 0.965926
v 0.226466 0.216506 0.845185
v 0.202783 0.125000 0.756797
v 0.194114 0.000000 0.724444
v 0.202783 -0.125000 0.756797
v 0.226466 -0.216506 0.845185
v 0.258819 -0.250000 0.965926
v 0.291171 -0.216506 1.086667
v 0.314854 -0.125000 1.175055
v 0.625000 0.000000 1.082532
v 0.608253 0.125000 1.053525
v 0.562500 0.216506 0.974279
v 0.500000 0.250000 0.866025
v 0.437500 0.216506 0.757772
v 0.391747 0.125000 0.678525
v 0.375000 0.000000 0.649519
v 0.391747 -0.125000 0.678525
v 0.437500 -0.216506 0.757772
v 0.500000 -0.250000 0.866025
v 0.562500 -0.216506 0.974279
v 0.608253 -0.125000 1.053525
v 0.883883 0.000000 0.883884
v 0.860199 0.125000 0.860200
v 0.795495 0.216506 0.795496
v 0.707106 0.250000 0.707107
v 0.618718 0.216506 0.618719
v 0.554013 0.125000 0.554014
v 0.530330 0.000000 0.530330
v 0.554013 -0.125000 0.554014
v 0.618718 -0.216506 0.618719
v 0.707106 -0.250000 0.707107
v 0.795495 -0.216506 0.795496
v 0.860199 -0.125000 0.860200
v 1.082532 0.000000 0.625000
v 1.053525 0.125000 0.608253
v 0.974279 0.216506 0.562500
v 0.866025 0.250000 0.500000
v 0.757772 0.216506 0.437500
v 0.678525 0.125000 0.391747
v 0.649519 0.000000 0.375000
v 0.678525 -0.125000 0.391747
v 0.757772 -0.216506 0.437500
v 0.866025 -0.250000 0.500000
v 0.974279 -0.216506 0.562500
v 1.053525 -0.125000 0.608253
v 1.207407 0.000000 0.323523
v 1.175055 0.125000 0.314855
v 1.086667 0.216506 0.291171
v 0.965926 0.250000 0.258819
v 0.845185 0.216506 0.226466
v 0.756797 0.125000 0.202783
v 0.724444 0.000000 0.194114
v 0.756797 -0.125000 0.202783
v 0.845185 -0.216506 0.226466
v 0.965926 -0.250000 0.258819
v 1.086667 -0.216506 0.291171
v 1.175055 -0.125000 0.314855
v -1.000000 -0.000000 -0.000000
v 1.000000 0.000000 0.000000
vn -0.9914 -0.0000 0.1305
vn -0.9659 -0.0000 0.2588
vn -0.8415 0.4909 0.2255
vn -0.8655 0.4877 0.1140
vn -0.4982 0.8567 0.1335
vn -0.5146 0.8547 0.0678
vn -0.0208 0.9998 0.0056
vn -0.0216 0.9998 0.0028
vn 0.4670 0.8753 -0.1251
vn 0.4825 0.8736 -0.0635
vn 0.8311 0.5096 -0.2227
vn 0.8550 0.5063 -0.1126
vn 0.9659 -0.0000 -0.2588
vn 0.9914 -0.0000 -0.1305
vn 0.8311 -0.5096 -0.2227
vn 0.8550 -0.5063 -0.1126
vn 0.4670 -0.8753 -0.1251
vn 0.4825 -0.8736 -0.0635
vn -0.0208 -0.9998 0.0056
vn -0.0216 -0.9998 0.0028
vn -0.4982 -0.8567 0.1335
vn -0.5146 -0.8547 0.0678
vn -0.8415 -0.4909 0.2255
vn -0.8655 -0.4877 0.1140
vn -0.8660 -0.0000 0.5000
vn -0.7545 0.4909 0.4356
vn -0.4467 0.8567 0.2579
vn -0.0187 0.9998 0.0108
vn 0.4187 0.8753 -0.2417
vn 0.7452 0.5096 -0.4302
vn 0.8660 -0.0000 -0.5000
vn 0.7452 -0.5096 -0.4302
vn 0.4187 -0.8753 -0.2417
vn -0.0187 -0.9998 0.0108
vn -0.4467 -0.8567 0.2579
vn -0.7545 -0.4909 0.4356
vn -0.7071 -0.0000 0.7071
vn -0.6160 0.4909 0.6160
vn -0.3647 0.8567 0.3647
vn -0.0152 0.9998 0.0152
vn 0.3419 0.8753 -0.3419
vn 0.6084 0.5096 -0.6084
vn 0.7071 -0.0000 -0.7071
vn 0.6084 -0.5096 -0.6084
vn 0.3419 -0.8753 -0.3419
vn -0.0152 -0.9998 0.0152
vn -0.3647 -0.8567 0.3647
vn -0.6160 -0.4909 0.6160
vn -0.5000 -0.0000 0.8660
vn -0.4356 0.4909 0.7545
vn -0.2579 0.8567 0.4467
vn -0.0108 0.9998 0.0187
vn 0.2417 0.8753 -0.4187
vn 0.4302 0.5096 -0.7452
vn 0.5000 -0.0000 -0.8660
vn 0.4302 -0.5096 -0.7452
vn 0.2417 -0.8753 -0.4187
vn -0.0108 -0.9998 0.0187
vn -0.2579 -0.8567 0.4467
vn -0.4356 -0.4909 0.7545
vn -0.2588 -0.0000 0.9659
vn -0.2255 0.4909 0.8415
vn -0.1335 0.8567 0.4982
vn -0.0056 0.9998 0.0208
vn 0.1251 0.8753 -0.4670
vn 0.2227 0.5096 -0.8311
vn 0.2588 -0.0000 -0.9659
vn 0.2227 -0.5096 -0.8311
vn 0.1251 -0.8753 -0.4670
vn -0.0056 -0.9998 0.0208
vn -0.1335 -0.8567 0.4982
vn -0.2255 -0.4909 0.8415
vn -0.0000 -0.0000 1.0000
vn -0.0000 0.4909 0.8712
vn -0.0000 0.8567 0.5158
vn -0.0000 0.9998 0.0216
vn -0.0000 0.8753 -0.4835
vn -0.0000 0.5096 -0.8604
vn -0.0000 -0.0000 -1.0000
vn -0.0000 -0.5096 -0.8604
vn -0.0000 -0.8753 -0.4835
vn -0.0000 -0.9998 0.0216
vn -0.0000 -0.8567 0.5158
vn -0.0000 -0.4909 0.8712
vn 0.2588 -0.0000 0.9659
vn 0.2255 0.4909 0.8415
vn 0.1335 0.8567 0.4982
vn 0.0056 0.9998 0.0208
vn -0.1251 0.8753 -0.4670
vn -0.2227 0.5096 -0.8311
vn -0.2588 -0.0000 -0.9659
vn -0.2227 -0.5096 -0.8311
vn -0.1251 -0.8753 -0.4670
vn 0.0056 -0.9998 0.0208
vn 0.1335 -0.8567 0.4982
vn 0.2255 -0.4909 0.8415
vn 0.5000 -0.0000 0.8660
vn 0.4356 0.4909 0.7545
vn 0.2579 0.8567 0.4467
vn 0.0108 0.9998 0.0187
vn -0.2417 0.8753 -0.4187
vn -0.4302 0.5096 -0.7452
vn -0.5000 -0.0000 -0.8660
vn -0.4302 -0.5096 -0.7452
vn -0.2417 -0.8753 -0.4187
vn 0.0108 -0.9998 0.0187
vn 0.2579 -0.8567 0.4467
vn 0.4356 -0.4909 0.7545
vn 0.7071 -0.0000 0.7071
vn 0.6160 0.4909 0.6160
vn 0.3647 0.8567 0.3647
vn 0.0152 0.9998 0.0152
vn -0.3419 0.8753 -0.3419
vn -0.6084 0.5096 -0.6084
vn -0.7071 -0.0000 -0.7071
vn -0.6084 -0.5096 -0.6084
vn -0.3419 -0.8753 -0.3419
vn 0.0152 -0.9998 0.0152
vn 0.3647 -0.8567 0.3647
vn 0.6160 -0.4909 0.6160
vn 0.8660 -0.0000 0.5000
vn 0.7545 0.4909 0.4356
vn 0.4467 0.8567 0.2579
vn 0.0187 0.9998 0.0108
vn -0.4187 0.8753 -0.2417
vn -0.7452 0.5096 -0.4302
vn -0.8660 -0.0000 -0.5000
vn -0.7452 -0.5096 -0.4302
vn -0.4187 -0.8753 -0.2417
vn 0.0187 -0.9998 0.0108
vn 0.4467 -0.8567 0.2579
vn 0.7545 -0.4909 0.4356
vn 0.9659 -0.0000 0.2588
vn 0.8415 0.4909 0.2255
vn 0.4982 0.8567 0.1335
vn 0.0208 0.9998 0.0056
vn -0.4670 0.8753 -0.1251
vn -0.8311 0.5096 -0.2227
vn -0.9659 -0.0000 -0.2588
vn -0.8311 -0.5096 -0.2227
vn -0.4670 -0.8753 -0.1251
vn 0.0208 -0.9998 0.0056
vn 0.4982 -0.8567 0.1335
vn 0.8415 -0.4909 0.2255
vn 0.9914 -0.0000 0.1305
vn 0.8655 0.4877 0.1140
vn 0.5146 0.8547 0.0678
vn 0.0216 0.9998 0.0028
vn -0.4825 0.8736 -0.0635
vn -0.8550 0.5063 -0.1126
vn -0.9914 -0.0000 -0.1305
vn -0.8550 -0.5063 -0.1126
vn -0.4825 -0.8736 -0.0635
vn 0.0216 -0.9998 0.0028
vn 0.5146 -0.8547 0.0678
vn 0.8655 -0.4877 0.1140
vt 0.500000 0.500000
vt 0.500000 0.583333
vt 0.500000 0.666667
vt 0.500000 0.750000
vt 0.500000 0.833333
vt 0.500000 0.916667
vt 0.500000 1.000000
vt 0.500000 0.000000
vt 0.500000 0.083333
vt 0.500000 0.166667
vt 0.500000 0.250000
vt 0.500000 0.333333
vt 0.500000 0.416667
vt -0.000000 0.500000
vt -0.000000 0.583333
vt -0.000000 0.666667
vt -0.000000 0.750000
vt -0.000000 0.833333
vt -0.000000 0.916667
vt -0.000000 1.000000
vt -0.000000 0.000000
vt -0.000000 0.083333
vt -0.000000 0.166667
vt -0.000000 0.250000
vt -0.000000 0.333333
vt -0.000000 0.416667
vt 0.041667 0.500000
vt 0.041667 0.583333
vt 0.041667 0.666667
vt 0.041667 0.750000
vt 0.041667 0.833333
vt 0.041667 0.916667
vt 0.041667 1.000000
vt 0.041667 0.000000
vt 0.041667 0.083333
vt 0.041667 0.166667
vt 0.041667 0.250000
vt 0.041667 0.333333
vt 0.041667 0.416667
vt 0.083333 0.500000
vt 0.083333 0.583333
vt 0.083333 0.666667
vt 0.083333 0.750000
vt 0.083333 0.833333
vt 0.083333 0.916667
vt 0.083333 1.000000
vt 0.083333 0.000000
vt 0.083333 0.083333
vt 0.083333 0.166667
vt 0.083333 0.250000
vt 0.083333 0.333333
vt 0.083333 0.416667
vt 0.125000 0.500000
vt 0.125000 0.583333
vt 0.125000 0.666667
vt 0.125000 0.750000
vt 0.125000 0.833333
vt 0.125000 0.916667
vt 0.125000 1.000000
vt 0.125000 0.000000
vt 0.125000 0.083333
vt 0.125000 0.166667
vt 0.125000 0.250000
vt 0.125000 0.333333
vt 0.125000 0.416667
vt 0.166667 0.500000
vt 0.166667 0.583333
vt 0.166667 0.666667
vt 0.166667 0.750000
vt 0.166667 0.833333
vt 0.166667 0.916667
vt 0.166667 1.000000
vt 0.166667 0.000000
vt 0.166667 0.083333
vt 0.166667 0.166667
vt 0.166667 0.250000
vt 0.166667 0.333333
vt 0.166667 0.416667
vt 0.208333 0.500000
vt 0.208333 0.583333
vt 0.208333 0.666667
vt 0.208333 0.750000
vt 0.208333 0.833333
vt 0.208333 0.916667
vt 0.208333 1.000000
vt 0.208333 0.000000
vt 0.208333 0.083333
vt 0.208333 0.166667
vt 0.208333 0.250000
vt 0.208333 0.333333
vt 0.208333 0.416667
vt 0.250000 0.500000
vt 0.250000 0.583333
vt 0.250000 0.666667
vt 0.250000 0.750000
vt 0.250000 0.833333
vt 0.250000 0.916667
vt 0.250000 1.000000
vt 0.250000 0.000000
vt 0.250000 0.083333
vt 0.250000 0.166667
vt 0.250000 0.250000
vt 0.250000 0.333333
vt 0.250000 0.416667
vt 0.291667 0.500000
vt 0.291667 0.583333
vt 0.291667 0.666667
vt 0.291667 0.750000
vt 0.291667 0.833333
vt 0.291667 0.916667
vt 0.291667 1.000000
vt 0.291667 0.000000
vt 0.291667 0.083333
vt 0.291667 0.166667
vt 0.291667 0.250000
vt 0.291667 0.333333
vt 0.291667 0.416667
vt 0.333333 0.500000
vt 0.333333 0.583333
vt 0.333333 0.666667
vt 0.333333 0.750000
vt 0.333333 0.833333
vt 0.333333 0.916667
vt 0.333333 1.000000
vt 0.333333 0.000000
vt 0.333333 0.083333
vt 0.333333 0.166667
vt 0.333333 0.250000
vt 0.333333 0.333333
vt 0.333333 0.416667
vt 0.375000 0.500000
vt 0.375000 0.583333
vt 0.375000 0.666667
vt 0.375000 0.750000
vt 0.375000 0.833333
vt 0.375000 0.916667
vt 0.375000 1.000000
vt 0.375000 0.000000
vt 0.375000 0.083333
vt 0.375000 0.166667
vt 0.375000 0.250000
vt 0.375000 0.333333
vt 0.375000 0.416667
vt 0.416667 0.500000
vt 0.416667 0.583333
vt 0.416667 0.666667
vt 0.416667 0.750000
vt 0.416667 0.833333
vt 0.416667 0.916667
vt 0.416667 1.000000
vt 0.416667 0.000000
vt 0.416667 0.083333
vt 0.416667 0.166667
vt 0.416667 0.250000
vt 0.416667 0.333333
vt 0.416667 0.416667
vt 0.458333 0.500000
vt 0.458333 0.583333
vt 0.458333 0.666667
vt 0.458333 0.750000
vt 0.458333 0.833333
vt 0.458333 0.916667
vt 0.458333 1.000000
vt 0.458333 0.000000
vt 0.458333 0.083333
vt 0.458333 0.166667
vt 0.458333 0.250000
vt 0.458333 0.333333
vt 0.458333 0.416667
vt -0.000000 0.458333
vt 0.500000 0.458333
s 1
f 13/14/1 25/27/2 26/28/3 14/15/4
f 14/15/4 26/28/3 27/29/5 15/16/6
f 15/16/6 27/29/5 28/30/7 16/17/8
f 16/17/8 28/30/7 29/31/9 17/18/10
f 17/18/10 29/31/9 30/32/11 18/19/12
f 18/19/12 30/32/11 31/33/13 19/20/14
f 19/21/14 31/34/13 32/35/15 20/22/16
f 20/22/16 32/35/15 33/36/17 21/23/18
f 21/23/18 33/36/17 34/37/19 22/24/20
f 22/24/20 34/37/19 35/38/21 23/25/22
f 23/25/22 35/38/21 36/39/23 24/26/24
f 24/26/24 36/39/23 25/27/2 13/14/1
f 25/27/2 37/40/25 38/41/26 26/28/3
f 26/28/3 38/41/26 39/42/27 27/29/5
f 27/29/5 39/42/27 40/43/28 28/30/7
f 28/30/7 40/43/28 41/44/29 29/31/9
f 29/31/9 41/44/29 42/45/30 30/32/11
f 30/32/11 42/45/30 43/46/31 31/33/13
f 31/34/13 43/47/31 44/48/32 32/35/15
f 32/35/15 44/48/32 45/49/33 33/36/17
f 33/36/17 45/49/33 46/50/34 34/37/19
f 34/37/19 46/50/34 47/51/35 35/38/21
f 35/38/21 47/51/35 48/52/36 36/39/23
f 36/39/23 48/52/36 37/40/25 25/27/2
f 37/40/25 49/53/37 50/54/38 38/41/26
f 38/41/26 50/54/38 51/55/39 39/42/27
f 39/42/27 51/55/39 52/56/40 40/43/28
f 40/43/28 52/56/40 53/57/41 41/44/29
f 41/44/29 53/57/41 54/58/42 42/45/30
f 42/45/30 54/58/42 55/59/43 43/46/31
f 43/47/31 55/60/43 56/61/44 44/48/32
f 44/48/32 56/61/44 57/62/45 45/49/33
f 45/49/33 57/62/45 58/63/46 46/50/34
f 46/50/34 58/63/46 59/64/47 47/51/35
f 47/51/35 59/64/47 60/65/48 48/52/36
f 48/52/36 60/65/48 49/53/37 37/40/25
f 49/53/37 61/66/49 62/67/50 50/54/38
f 50/54/38 62/67/50 63/68/51 51/55/39
f 51/55/39 63/68/51 64/69/52 52/56/40
f 52/56/40 64/69/52 65/70/53 53/57/41
f 53/57/41 65/70/53 66/71/54 54/58/42
f 54/58/42 66/71/54 67/72/55 55/59/43
f 55/60/43 67/73/55 68/74/56 56/61/44
f 56/61/44 68/74/56 69/75/57 57/62/45
f 57/62/45 69/75/57 70/76/58 58/63/46
f 58/63/46 70/76/58 71/77/59 59/64/47
f 59/64/47 71/77/59 72/78/60 60/65/48
f 60/65/48 72/78/60 61/66/49 49/53/37
f 61/66/49 73/79/61 74/80/62 62/67/50
f 62/67/50 74/80/62 75/81/63 63/68/51
f 63/68/51 75/81/63 76/82/64 64/69/52
f 64/69/52 76/82/64 77/83/65 65/70/53
f 65/70/53 77/83/65 78/84/66 66/71/54
f 66/71/54 78/84/66 79/85/67 67/72/55
f 67/73/55 79/86/67 80/87/68 68/74/56
f 68/74/56 80/87/68 81/88/69 69/75/57
f 69/75/57 81/88/69 82/89/70 70/76/58
f 70/76/58 82/89/70 83/90/71 71/77/59
f 71/77/59 83/90/71 84/91/72 72/78/60
f 72/78/60 84/91/72 73/79/61 61/66/49
f 73/79/61 85/92/73 86/93/74 74/80/62
f 74/80/62 86/93/74 87/94/75 75/81/63
f 75/81/63 87/94/75 88/95/76 76/82/64
f 76/82/64 88/95/76 89/96/77 77/83/65
f 77/83/65 89/96/77 90/97/78 78/84/66
f 78/84/66 90/97/78 91/98/79 79/85/67
f 79/86/67 91/99/79 92/100/80 80/87/68
f 80/87/68 92/100/80 93/101/81 81/88/69
f 81/88/69 93/101/81 94/102/82 82/89/70
f 82/89/70 94/102/82 95/103/83 83/90/71
f 83/90/71 95/103/83 96/104/84 84/91/72
f 84/91/72 96/104/84 85/92/73 73/79/61
f 85/92/73 97/105/85 98/106/86 86/93/74
f 86/93/74 98/106/86 99/107/87 87/94/75
f 87/94/75 99/107/87 100/108/88 88/95/76
f 88/95/76 100/108/88 101/109/89 89/96/77
f 89/96/77 101/109/89 102/110/90 90/97/78
f 90/97/78 102/110/90 103/111/91 91/98/79
f 91/99/79 103/112/91 104/113/92 92/100/80
f 92/100/80 104/113/92 105/114/93 93/101/81
f 93/101/81 105/114/93 106/115/94 94/102/82
f 94/102/82 106/115/94 107/116/95 95/103/83
f 95/103/83 107/116/95 108/117/96 96/104/84
f 96/104/84 108/117/96 97/105/85 85/92/73
f 97/105/85 109/118/97 110/119/98 98/106/86
f 98/106/86 110/119/98 111/120/99 99/107/87
f 99/107/87 111/120/99 112/121/100 100/108/88
f 100/108/88 112/121/100 113/122/101 101/109/89
f 101/109/89 113/122/101 114/123/102 102/110/90
f 102/110/90 114/123/102 115/124/103 103/111/91
f 103/112/91 115/125/103 116/126/104 104/113/92
f 104/113/92 116/126/104 117/127/105 105/114/93
f 105/114/93 117/127/105 118/128/106 106/115/94
f 106/115/94 118/128/106 119/129/107 107/116/95
f 107/116/95 119/129/107 120/130/108 108/117/96
f 108/117/96 120/130/108 109/118/97 97/105/85
f 109/118/97 121/131/109 122/132/110 110/119/98
f 110/119/98 122/132/110 123/133/111 111/120/99
f 111/120/99 123/133/111 124/134/112 112/121/100
f 112/121/100 124/134/112 125/135/113 113/122/101
f 113/122/101 125/135/113 126/136/114 114/123/102
f 114/123/102 126/136/114 127/137/115 115/124/103
f 115/125/103 127/138/115 128/139/116 116/126/104
f 116/126/104 128/139/116 129/140/117 117/127/105
f 117/127/105 129/140/117 130/141/118 118/128/106
f 118/128/106 130/141/118 131/142/119 119/129/107
f 119/129/107 131/142/119 132/143/120 120/130/108
f 120/130/108 132/143/120 121/131/109 109/118/97
f 121/131/109 133/144/121 134/145/122 122/132/110
f 122/132/110 134/145/122 135/146/123 123/133/111
f 123/133/111 135/146/123 136/147/124 124/134/112
f 124/134/112 136/147/124 137/148/125 125/135/113
f 125/135/113 137/148/125 138/149/126 126/136/114
f 126/136/114 138/149/126 139/150/127 127/137/115
f 127/138/115 139/151/127 140/152/128 128/139/116
f 128/139/116 140/152/128 141/153/129 129/140/117
f 129/140/117 141/153/129 142/154/130 130/141/118
f 130/141/118 142/154/130 143/155/131 131/142/119
f 131/142/119 143/155/131 144/156/132 132/143/120
f 132/143/120 144/156/132 133/144/121 121/131/109
f 133/144/121 145/157/133 146/158/134 134/145/122
f 134/145/122 146/158/134 147/159/135 135/146/123
f 135/146/123 147/159/135 148/160/136 136/147/124
f 136/147/124 148/160/136 149/161/137 137/148/125
f 137/148/125 149/161/137 150/162/138 138/149/126
f 138/149/126 150/162/138 151/163/139 139/150/127
f 139/151/127 151/164/139 152/165/140 140/152/128
f 140/152/128 152/165/140 153/166/141 141/153/129
f 141/153/129 153/166/141 154/167/142 142/154/130
f 142/154/130 154/167/142 155/168/143 143/155/131
f 143/155/131 155/168/143 156/169/144 144/156/132
f 144/156/132 156/169/144 145/157/133 133/144/121
f 145/157/133 1/1/145 2/2/146 146/158/134
f 146/158/134 2/2/146 3/3/147 147/159/135
f 147/159/135 3/3/147 4/4/148 148/160/136
f 148/160/136 4/4/148 5/5/149 149/161/137
f 149/161/137 5/5/149 6/6/150 150/162/138
f 150/162/138 6/6/150 7/7/151 151/163/139
f 151/164/139 7/8/151 8/9/152 152/165/140
f 152/165/140 8/9/152 9/10/153 153/166/141
f 153/166/141 9/10/153 10/11/154 154/167/142
f 154/167/142 10/11/154 11/12/155 155/168/143
f 155/168/143 11/12/155 12/13/156 156/169/144
f 156/169/144 12/13/156 1/1/145 145/157/133
f 13/14/79 14/15/79 157/170/79
f 14/15/79 15/16/79 157/170/79
f 15/16/79 16/17/79 157/170/79
f 16/17/79 17/18/79 157/170/79
f 17/18/79 18/19/79 157/170/79
f 18/19/79 19/21/79 157/170/79
f 19/21/79 20/22/79 157/170/79
f 20/22/79 21/23/79 157/170/79
f 21/23/79 22/24/79 157/170/79
f 22/24/79 23/25/79 157/170/79
f 23/25/79 24/26/79 157/170/79
f 24/26/79 13/14/79 157/170/79
f 1/1/79 12/13/79 158/171/79
f 12/13/79 11/12/79 158/171/79
f 11/12/79 10/11/79 158/171/79
f 10/11/79 9/10/79 158/171/79
f 9/10/79 8/9/79 158/171/79
f 8/9/79 7/8/79 158/171/79
f 7/8/79 6/6/79 158/171/79
f 6/6/79 5/5/79 158/171/79
f 5/5/79 4/4/79 158/171/79
f 4/4/79 3/3/79 158/171/79
f 3/3/79 2/2/79 158/171/79
f 2/2/79 1/1/79 158/171/79
