# Blender 3.4.1
# www.blender.org
mtllib quaterCircle.mtl
o Circle
v 0.000000 -0.250000 -1.000000
v 0.000000 0.250000 -1.000000
v -1.000000 -0.250000 0.000000
v -1.000000 0.250000 0.000000
v -0.980785 -0.250000 -0.195090
v -0.980785 0.250000 -0.195090
v -0.923880 -0.250000 -0.382683
v -0.923880 0.250000 -0.382683
v -0.831470 -0.250000 -0.555570
v -0.831470 0.250000 -0.555570
v -0.707107 -0.250000 -0.707107
v -0.707107 0.250000 -0.707107
v -0.555570 -0.250000 -0.831470
v -0.555570 0.250000 -0.831470
v -0.382683 -0.250000 -0.923880
v -0.382683 0.250000 -0.923880
v -0.195090 -0.250000 -0.980785
v -0.195090 0.250000 -0.980785
v 0.000000 0.250000 -1.000000
v -1.000000 0.250000 0.000000
v -0.980785 0.250000 -0.195090
v -0.923880 0.250000 -0.382683
v -0.831470 0.250000 -0.555570
v -0.707107 0.250000 -0.707107
v -0.555570 0.250000 -0.831470
v -0.382683 0.250000 -0.923880
v -0.195090 0.250000 -0.980785
v 0.000000 0.250000 -1.000000
v -1.000000 0.250000 0.000000
v -0.980785 0.250000 -0.195090
v -0.923880 0.250000 -0.382683
v -0.831470 0.250000 -0.555570
v -0.707107 0.250000 -0.707107
v -0.555570 0.250000 -0.831470
v -0.382683 0.250000 -0.923880
v -0.195090 0.250000 -0.980785
v 0.000000 0.250000 -1.000000
v -1.000000 0.250000 0.000000
v -0.980785 0.250000 -0.195090
v -0.923880 0.250000 -0.382683
v -0.831470 0.250000 -0.555570
v -0.707107 0.250000 -0.707107
v -0.555570 0.250000 -0.831470
v -0.382683 0.250000 -0.923880
v -0.195090 0.250000 -0.980785
v 0.000000 0.250000 -0.000000
v -0.000000 -0.250000 -0.000000
v -1.000000 0.250000 0.000000
vn -0.9952 -0.0000 -0.0980
vn -0.9569 -0.0000 -0.2903
vn -0.8819 -0.0000 -0.4714
vn -0.7730 -0.0000 -0.6344
vn -0.6344 -0.0000 -0.7730
vn -0.4714 -0.0000 -0.8819
vn -0.2903 -0.0000 -0.9569
vn -0.0980 -0.0000 -0.9952
vn -0.0000 1.0000 -0.0000
vn -0.0000 -1.0000 -0.0000
vn -0.0000 -0.0000 1.0000
vn 1.0000 -0.0000 -0.0000
vt 0.000000 0.500000
vt 0.000000 1.000000
vt 0.250000 0.500000
vt 0.250000 1.000000
vt 0.218750 0.500000
vt 0.218750 1.000000
vt 0.187500 0.500000
vt 0.187500 1.000000
vt 0.156250 0.500000
vt 0.156250 1.000000
vt 0.125000 0.500000
vt 0.125000 1.000000
vt 0.093750 0.500000
vt 0.093750 1.000000
vt 0.062500 0.500000
vt 0.062500 1.000000
vt 0.031250 0.500000
vt 0.031250 1.000000
vt 0.000000 1.000000
vt 0.250000 1.000000
vt 0.218750 1.000000
vt 0.187500 1.000000
vt 0.156250 1.000000
vt 0.125000 1.000000
vt 0.093750 1.000000
vt 0.062500 1.000000
vt 0.031250 1.000000
vt 0.000000 1.000000
vt 0.250000 1.000000
vt 0.218750 1.000000
vt 0.187500 1.000000
vt 0.156250 1.000000
vt 0.125000 1.000000
vt 0.093750 1.000000
vt 0.062500 1.000000
vt 0.031250 1.000000
vt 0.250000 0.490000
vt 0.010000 0.250000
vt 0.014612 0.296822
vt 0.028269 0.341844
vt 0.050447 0.383337
vt 0.080294 0.419706
vt 0.116663 0.449553
vt 0.158156 0.471731
vt 0.203178 0.485388
vt 0.014612 0.296822
vt 0.028269 0.341844
vt 0.050447 0.383337
vt 0.080294 0.419706
vt 0.116663 0.449553
vt 0.158156 0.471731
vt 0.203178 0.485388
vt 0.000000 0.000000
vt 0.250000 0.490000
vt 0.125000 0.500000
vt 0.156250 0.500000
vt 0.187500 0.500000
vt 0.062500 0.500000
vt 0.218750 0.500000
vt 0.093750 0.500000
vt 0.250000 0.500000
vt 0.031250 0.500000
vt 0.000000 0.000000
s 0
f 3/3/1 4/4/1 6/6/1 5/5/1
f 5/5/2 6/6/2 8/8/2 7/7/2
f 7/7/3 8/8/3 10/10/3 9/9/3
f 9/9/4 10/10/4 12/12/4 11/11/4
f 11/11/5 12/12/5 14/14/5 13/13/5
f 13/13/6 14/14/6 16/16/6 15/15/6
f 15/15/7 16/16/7 18/18/7 17/17/7
f 17/17/8 18/18/8 2/2/8 1/1/8
f 19/19/9 27/27/9 36/36/9 28/28/9
f 6/6/9 4/4/9 20/20/9 21/21/9
f 16/16/9 14/14/9 25/25/9 26/26/9
f 8/8/9 6/6/9 21/21/9 22/22/9
f 18/18/9 16/16/9 26/26/9 27/27/9
f 10/10/9 8/8/9 22/22/9 23/23/9
f 2/2/9 18/18/9 27/27/9 19/19/9
f 12/12/9 10/10/9 23/23/9 24/24/9
f 14/14/9 12/12/9 24/24/9 25/25/9
f 21/21/9 20/20/9 29/29/9 30/30/9
f 22/22/9 21/21/9 30/30/9 31/31/9
f 23/23/9 22/22/9 31/31/9 32/32/9
f 24/24/9 23/23/9 32/32/9 33/33/9
f 25/25/9 24/24/9 33/33/9 34/34/9
f 26/26/9 25/25/9 34/34/9 35/35/9
f 27/27/9 26/26/9 35/35/9 36/36/9
f 46/46/9 39/39/9 38/38/9
f 46/47/9 40/40/9 39/39/9
f 46/48/9 41/41/9 40/40/9
f 46/49/9 42/42/9 41/41/9
f 46/50/9 43/43/9 42/42/9
f 46/51/9 44/44/9 43/43/9
f 46/52/9 45/45/9 44/44/9
f 46/54/9 37/37/9 45/45/9
f 11/11/10 13/13/10 47/55/10
f 9/9/10 11/11/10 47/56/10
f 17/17/10 1/1/10 47/62/10
f 7/7/10 9/9/10 47/57/10
f 15/15/10 17/17/10 47/58/10
f 5/5/10 7/7/10 47/59/10
f 3/3/10 5/5/10 47/61/10
f 13/13/10 15/15/10 47/60/10
f 46/53/11 48/63/11 3/3/11 47/61/11
f 47/62/12 1/1/12 37/37/12 46/54/12
l 46 19
l 38 48
